<?xml version="1.0" encoding="UTF-8"?>
<svg id="Layer_2" data-name="Layer 2" xmlns="http://www.w3.org/2000/svg" xmlns:xlink="http://www.w3.org/1999/xlink" viewBox="0 0 284.26 289.53">
  <defs>
    <style>
      .cls-1 {
        fill: url(#radial-gradient);
      }

      .cls-2 {
        fill: #f7af1e;
      }
    </style>
    <radialGradient id="radial-gradient" cx="136.68" cy="89.49" fx="136.68" fy="89.49" r="268.22" gradientUnits="userSpaceOnUse">
      <stop offset=".2" stop-color="#ffe341"/>
      <stop offset=".53" stop-color="#ef6d36"/>
      <stop offset=".79" stop-color="#be1e2d"/>
    </radialGradient>
  </defs>
  <g id="Logos">
    <g>
      <path class="cls-1" d="M230.07,196.03c17.86-5.49,62.28-34.26,52.9-88.52-5.45,34.37-31.98,44.85-31.98,44.85,0,0,21.41-22.76,25.08-47.35,2.22-14.88-.58-29.29-5.05-38.36-.24,35.25-24.43,54.83-24.43,54.83,0,0,24.51-34.49,7.54-73.83-4.29-9.95-11.42-19.58-14.39-22.28,16.23,41.23-5.79,79.04-5.79,79.04,0,0,11.75-45.88-3.88-74.47-6.88-12.58-16.31-24.22-29.53-29.95,0,0,19.45,16.87,19.45,62.38s-19.82,82.39-47.35,113.38c-20.06,22.59-28.25,39.49-31.08,71.05-1.59-38.27-27.79-49.82-39.17-47.41-10.36,2.19-10.73,10.23-8.81,11.95,0,0-7.08-.39-8.78-8.32-1.81-8.45,6.74-29.59,18.75-36.8-23.25-28.97-39.29-62.91-39.29-103.85C64.26,16.87,83.71,0,83.71,0c-13.21,5.73-22.63,17.37-29.53,29.95-16.69,30.42-6.33,70.43-6.33,70.43,0,0-20.92-32.67-3.34-75-2.44,2.22-11.88,13.69-16.75,28.48-12.08,36.69,9.9,67.62,9.9,67.62,0,0-24.19-19.58-24.43-54.83-4.26,8.62-7.36,22.92-5.05,38.36,3.67,24.59,25.08,47.35,25.08,47.35,0,0-26.53-10.48-31.98-44.85-9.37,54.26,35.04,83.03,52.9,88.52-20.31,2.09-36.22-11.52-36.21-11.51,14.16,35.11,41.63,33.07,73.08,44.72,44.96,16.67,42.32,60.29,49.24,60.29,4.83,0,7.08-43.29,52.91-60.29,31.45-11.66,58.92-9.61,73.08-44.72,0,0-15.9,13.6-36.21,11.51Z"/>
      <path class="cls-2" d="M106.24,177.64l-7.46,11.93h-5.96s1.59-6.49,7.05-10.07c1.39-.91,6.38-1.86,6.38-1.86Z"/>
    </g>
  </g>
</svg>